<svg xmlns="http://www.w3.org/2000/svg" width="32" height="32" viewBox="0 0 32 32" fill="none">
  <rect width="32" height="32" rx="8" fill="#0A0A0B"/>
  <rect x="0.5" y="0.5" width="31" height="31" rx="7.5" stroke="#22C55E" stroke-opacity="0.3"/>
  <g transform="translate(4, 4)">
    <path d="m2 15 3-3 3 3 3-3 3 3 3-3 3 3" stroke="#22C55E" stroke-width="2" stroke-linecap="round" stroke-linejoin="round"/>
    <path d="m2 9 3 3 3-3 3 3 3-3 3 3 3-3" stroke="#06B6D4" stroke-width="2" stroke-linecap="round" stroke-linejoin="round"/>
    <path d="M15 2c-1.7 1.7-1.7 4.3 0 6 1.7 1.7 4.3 1.7 6 0" stroke="#8B5CF6" stroke-width="2" stroke-linecap="round"/>
    <path d="M9 22c-1.7-1.7-1.7-4.3 0-6 1.7-1.7 4.3-1.7 6 0" stroke="#22C55E" stroke-width="2" stroke-linecap="round"/>
  </g>
</svg>
